<svg xmlns="http://www.w3.org/2000/svg" viewBox="0 0 108 108"><defs><style>.cls-1{fill:none;}.cls-2{fill:#5bc641;}.cls-3{fill:#5bc740;}.cls-4{fill:#d5f0ce;}.cls-5{fill:#dbf2d5;}.cls-6{fill:#cdedc6;}.cls-7{fill:#89d677;}.cls-8{fill:#e2f5de;}.cls-9{fill:#d6f0d0;}.cls-10{fill:#8ad678;}.cls-11{fill:#d0eec9;}.cls-12{fill:#87d674;}.cls-13{fill:#7cd366;}.cls-14{fill:#75d15e;}.cls-15{fill:#c8ecbf;}.cls-16{fill:#9fde90;}.cls-17{fill:#86d573;}.cls-18{fill:#c6ebbd;}.cls-19{fill:#83d46f;}.cls-20{fill:#a8e19a;}.cls-21{fill:#bde8b3;}.cls-22{fill:#90d87f;}.cls-23{fill:#afe3a3;}.cls-24{fill:#cdeec5;}.cls-25{fill:#ddf3d7;}.cls-26{fill:#aee3a2;}.cls-27{fill:#81d36e;}.cls-28{fill:#ccedc4;}.cls-29{fill:#c8ecc0;}.cls-30{fill:#8bd779;}.cls-31{fill:#cbedc4;}.cls-32{fill:#cdeec6;}.cls-33{fill:#d1efc9;}.cls-34{fill:#85d571;}.cls-35{fill:#96db85;}.cls-36{fill:#8ad777;}.cls-37{fill:#bce8b1;}.cls-38{fill:#bfe8b4;}.cls-39{fill:#cfeec7;}.cls-40{fill:#c1eab8;}.cls-41{fill:#d7f0d1;}.cls-42{fill:#96da85;}.cls-43{fill:#5cc942;}.cls-44{fill:#5fd044;}.cls-45{fill:#60cc46;}.cls-46{fill:#5ece43;}.cls-47{fill:#62cc48;}.cls-48{fill:#61cd48;}.cls-49{fill:#68ce50;}.cls-50{fill:#68ce4f;}.cls-51{fill:#72d15b;}.cls-52{fill:#62cd48;}.cls-53{fill:#fdfefd;}</style></defs><title>资源 1</title><g id="图层_2" data-name="图层 2"><g id="图层_1-2" data-name="图层 1"><rect class="cls-1" width="108" height="108"/><path class="cls-2" d="M32.26,30.75A31.63,31.63,0,0,0,19.63,42.29l-1,1.77c-.23.5-.6.92-.83,1.42a26.61,26.61,0,0,0-1.38,2.78,25.81,25.81,0,0,0-1.24,4.39,1.24,1.24,0,0,1,0,.33c-.2.55-.18,1.14-.37,1.69a29.76,29.76,0,0,0,0,11.17c.45,1.32.55,2.74,1,4.08a41.62,41.62,0,0,0,2.55,6c.15.29.29.58.41.88a16.83,16.83,0,0,0,3.39,5.1,18.5,18.5,0,0,1,2.26,2.88,10.14,10.14,0,0,1,.35,2,3.47,3.47,0,0,1-.37,1.93,1,1,0,0,1-.23.52,1.75,1.75,0,0,0-.43.7,1.52,1.52,0,0,1-.54.47,3.14,3.14,0,0,0-1.52,1.49,1,1,0,0,1-.36.46,2.87,2.87,0,0,0-1.26,1c-.25.3.08.33.23.45a1.64,1.64,0,0,1,.29.16,1.4,1.4,0,0,0,.34.13c7,.07,14,0,21.06,0,2.42,0,4.84,0,7.26,0a4.66,4.66,0,0,0,1.77.19c-.41-.13-.94.22-1.32-.23a.37.37,0,0,1,.21-.26c.64-.26,1.39,0,2-.43a4.89,4.89,0,0,1,.85-.08,8.46,8.46,0,0,0,2.23-.37c.41,0,.84.23,1.21-.14a4.38,4.38,0,0,1,.75-.45.94.94,0,0,1,.28-.1c1.15-.13,2.35-.1,3.23-1,1-.61,2.07-1,3.07-1.53A38.27,38.27,0,0,0,70,84.87,30.81,30.81,0,0,0,76.8,76.4a46.47,46.47,0,0,0,2.12-4.79,10.16,10.16,0,0,0,.62-2.15,7.66,7.66,0,0,1,.54-1.94,17.38,17.38,0,0,0,.58-2.94,15.19,15.19,0,0,0,.38-4c0-.29-.07-.7.45-.69l3.42.27a24.73,24.73,0,0,0,3.55.07c.44,0,.84.07.8.61-.14,2.25.06,4.53-.61,6.73-.18.23-.4.4-.52,0s0-.75-.06-1.13a6.44,6.44,0,0,1-.17,3.48.78.78,0,0,1,0,.3,5.13,5.13,0,0,0-.77,2.62c-.06.19-.08.39-.13.59a4.75,4.75,0,0,1-.48,1.32c0,.07,0,.13,0,.19l-.17.24c-.36,1-.86,2-1.13,3.12a29.49,29.49,0,0,1-3.6,6,17.55,17.55,0,0,1-1.4,1.93,45.08,45.08,0,0,1-6.52,6.51,39.61,39.61,0,0,1-8,5A16.3,16.3,0,0,0,62.42,99c-.41.31-.94.31-1.37.56a1.5,1.5,0,0,0-.54.26c-.45.13-.88.34-1.34.44a10.89,10.89,0,0,0-1.58.44c-1.05.29-2.14.41-3.18.7a44.43,44.43,0,0,1-8.54.49q-14.83,0-29.66,0c-2.39,0-4.78.09-7.16-.11a5.28,5.28,0,0,1-1.6-.86,3.72,3.72,0,0,1-1.3-4.47c1-2.27,3.13-3.65,4.76-5.41,1.22-1.32,2.52-2.58,3.82-3.83.52-.49.58-.82.09-1.43a36.31,36.31,0,0,1-5.19-8.7,23.78,23.78,0,0,1-1.41-3.71,11.09,11.09,0,0,0-.66-2.12,28.11,28.11,0,0,1-1.41-8.95,2.86,2.86,0,0,0-.1-1,31.09,31.09,0,0,1,.51-8.28c.19-.91.32-1.83.57-2.72s.55-2,.87-3c.32-.43.2-1.08.69-1.43.41-.1.36.22.41.45,0-.21-.11-.44,0-.63.35-1.11.78-2.18,1.2-3.26.86-2.2,2.54-3.93,3.33-6.14.52-.7,1-1.46,1.52-2.13a46.65,46.65,0,0,1,6.51-6.52c.67-.55,1.42-1,2.12-1.5a19.93,19.93,0,0,0,3.55-2,27.31,27.31,0,0,1,5.77-2.55c.27-.08.55.15.83,0,.13,0,0-.17,0,0s0,.09-.06.09c-.25,0-.54,0-.49-.37a1.39,1.39,0,0,1,1.15-.48c1.06-.2,2-.67,3.1-.86.41-.11.91.13,1.26-.29a1.66,1.66,0,0,1,.76-.24,3.26,3.26,0,0,0,2,.26,3.86,3.86,0,0,1-1.33,0c-.3-.08-.29-.27,0-.38a45.65,45.65,0,0,1,7.74-.54,8.42,8.42,0,0,1,.87,0c1.39.12,1.39.12,1.23,1.54v5.81c.2.62,0,.86-.67.81a31.74,31.74,0,0,0-8.8.79c-1.29.49-2.69.6-4,1.14A20.61,20.61,0,0,0,32.26,30.75Z"/><path class="cls-3" d="M73.29,29c-1.56,0-3.12,0-4.68,0-2,0-2.85-.9-2.85-2.86q0-2.18,0-4.35a2.51,2.51,0,0,1,2.75-2.76c3.16,0,6.31,0,9.47,0,.87,0,1.09-.25,1.07-1.1,0-3.08,0-6.16,0-9.25,0-2.05.87-2.89,2.92-2.9H86.1A2.61,2.61,0,0,1,89,8.76c0,3,.06,6.09,0,9.14,0,1,.3,1.18,1.22,1.17,3-.06,6,0,8.92,0,2.31,0,3.16.85,3.16,3.12,0,1.27,0,2.54,0,3.81,0,2.12-.89,3-3,3-3,0-6.1.05-9.14,0-.94,0-1.13.28-1.11,1.15,0,2.94,0,5.88,0,8.82,0,2.41-.88,3.3-3.26,3.3-1.34,0-2.68,0-4,0A2.53,2.53,0,0,1,79,39.55c0-3.2,0-6.39,0-9.58,0-.77-.21-1-1-1C76.48,29.06,74.89,29,73.29,29Z"/><path class="cls-3" d="M38.9,55.1C37.46,60.53,36.06,65.73,34.7,71c-.18.71-.43,1-1.21,1-1.2-.07-2.4,0-3.59,0a.62.62,0,0,1-.75-.56c-1.76-7.46-3.55-14.91-5.36-22.5,1.55,0,3,0,4.43,0,.69,0,.57.55.66.92,1,4.45,2,8.91,2.94,13.36.06.28,0,.59.36.79,1.26-4.69,2.53-9.36,3.74-14.05.19-.76.45-1.09,1.28-1a28.67,28.67,0,0,0,3.59,0c.79,0,1.11.21,1.3,1,1.06,4.39,2.18,8.78,3.28,13.16a2.28,2.28,0,0,0,.5,1c.39-1.69.78-3.39,1.16-5.08.67-3.08,1.35-6.15,2-9.24.14-.64.37-.92,1.07-.87a16.72,16.72,0,0,0,2.83,0c1-.1,1.08.33.88,1.16-1.43,5.77-2.82,11.53-4.23,17.3-.3,1.23-.67,2.45-.88,3.7-.14.8-.51,1-1.24.93a22.18,22.18,0,0,0-3.05,0c-.84.08-1.08-.29-1.27-1-1.27-4.9-2.59-9.79-3.9-14.69C39.16,55.92,39.07,55.65,38.9,55.1Z"/><path class="cls-3" d="M77.06,71.9c-1.6,0-3.12,0-4.64,0-.48,0-.61-.27-.74-.62-.5-1.32-1-2.62-1.51-4a.83.83,0,0,0-.94-.66c-2.54,0-5.08,0-7.61,0a.9.9,0,0,0-1,.74c-.43,1.26-.93,2.51-1.34,3.78a.88.88,0,0,1-1,.72,33.47,33.47,0,0,0-3.47,0c-1,.06-.73-.43-.52-1Q57.15,63.63,60,56.29c.85-2.19,1.72-4.38,2.54-6.58a1.11,1.11,0,0,1,1.26-.87c1.33.07,2.92-.39,3.94.19s1.15,2.31,1.65,3.54Q73.11,61.78,76.78,71C76.88,71.27,77,71.55,77.06,71.9Z"/><path class="cls-4" d="M8.83,101.69h42.6c1.09,0,2.11-.51,3.21-.42.2-.1.38-.13.53.06a5.92,5.92,0,0,1-2.73.58c-3.36.06-6.72.29-10.08.27-10.4-.06-20.81,0-31.21,0a8.18,8.18,0,0,1-2.64-.41A.2.2,0,0,1,8.83,101.69Z"/><path class="cls-5" d="M21.15,92.78c.07.53.47.46.83.46,8.91,0,17.83,0,26.74,0a35.66,35.66,0,0,0,7-.86.3.3,0,0,1,0,.35,10.39,10.39,0,0,1-3.27.65c-10.31,1.32-20.67.33-31,.63-.46,0-1,.07-1.28-.41a.75.75,0,0,1,.38-.86A.5.5,0,0,1,21.15,92.78Z"/><path class="cls-6" d="M18.57,76.88c-.65-1.41-1.29-2.82-2-4.22a35.65,35.65,0,0,1-2-6.64c-.22-.32-.09-.68-.1-1a.18.18,0,0,1,.29,0A34.5,34.5,0,0,0,19,76.79a1,1,0,0,1,.18.81C18.75,77.55,18.78,77.11,18.57,76.88Z"/><path class="cls-7" d="M39.45,19.66l-.65.23a.81.81,0,0,1-.88.12.33.33,0,0,1-.24-.17A20.27,20.27,0,0,1,44,18.76a43.53,43.53,0,0,1,5-.12c1.48.15,1.5.19,1.13,1.71.17-1.19-.44-1.37-1.5-1.37a53,53,0,0,0-8.53.5C39.93,19.67,39.63,19.45,39.45,19.66Z"/><path class="cls-4" d="M88.45,67.78a27.65,27.65,0,0,0,.64-6.67c0-.66-.28-.79-.85-.79a11.63,11.63,0,0,1-3.33-.14l3.68,0c.54,0,1,.14.89.77-.4,1.85,0,3.75-.39,5.6-.34,1.49-.61,3-.91,4.5a.63.63,0,0,1-.42.46c-.38-.48,0-.9.11-1.34C87.76,69.27,88.33,68.58,88.45,67.78Z"/><path class="cls-8" d="M14.84,65l-.17,0c-.75-2-.54-4-.53-6.06,0-1.34.39-2.64.39-4,.32-.61.27-1.31.53-1.94a.65.65,0,0,0,0-.2c.05-.09.11-.11.19,0,.2,1.59-.48,3.09-.48,4.69a41.72,41.72,0,0,0,.05,5.7A12.56,12.56,0,0,1,14.84,65Z"/><path class="cls-9" d="M23.77,26.41a15.47,15.47,0,0,1-2.16,1.33c.39-.79,1.22-1.1,1.86-1.58a45.1,45.1,0,0,1,7.63-4.45,2,2,0,0,1,.74-.08.23.23,0,0,1,0,.28,28.39,28.39,0,0,1-3.36,1.67C26.85,24.45,25.4,25.58,23.77,26.41Z"/><path class="cls-9" d="M15.1,34.26a14.87,14.87,0,0,1-1.34,2.15c-1.09,2.06-2.54,3.91-3.5,6a5.57,5.57,0,0,1-.95,1.92.27.27,0,0,1-.23.17L9,44.45a18.27,18.27,0,0,1,2.16-4.63,39.07,39.07,0,0,1,3.48-5.18A2.42,2.42,0,0,1,15.1,34.26Z"/><path class="cls-9" d="M65.59,97.6A30.23,30.23,0,0,0,71.72,94a8.33,8.33,0,0,1,1.89-1.21c-.38.8-1.22,1.1-1.86,1.59a44.63,44.63,0,0,1-7.62,4.45,2.22,2.22,0,0,1-.74.08.23.23,0,0,1,0-.28A14.59,14.59,0,0,1,65.59,97.6Z"/><path class="cls-10" d="M70.14,85a35.35,35.35,0,0,1-8.37,5.69c-.4.2-1,.07-1.21.61a.52.52,0,0,1-.62.09.21.21,0,0,1,0-.3,36.27,36.27,0,0,0,8.21-4.73c.7-.51,1.18-1.28,2-1.63A.16.16,0,0,1,70.14,85Z"/><path class="cls-9" d="M80.13,86.26c1.23-1.9,2.47-3.79,3.69-5.7A9.59,9.59,0,0,0,85,78.24,14.75,14.75,0,0,1,86,76a.24.24,0,0,1,.28,0,10.29,10.29,0,0,1-1.64,3.81,39.25,39.25,0,0,1-4,6.12A2,2,0,0,1,80.13,86.26Z"/><path class="cls-11" d="M36.62,28.8a22.12,22.12,0,0,1,3.92-1.09A26.1,26.1,0,0,1,50.3,27c-.07.43-.35.32-.65.3a35.29,35.29,0,0,0-9,.65c-1.36.27-2.69.68-4,1-.07-.05-.1-.1-.07-.15S36.6,28.8,36.62,28.8Z"/><path class="cls-12" d="M50.3,27a48.33,48.33,0,0,0-9.76.68,2.23,2.23,0,0,1,1.18-.45c2.59-.36,5.16-.89,7.79-.55.58.08.58-.19.64-.55C50.39,26.42,50.26,26.74,50.3,27Z"/><path class="cls-13" d="M70.14,85l0-.27a39.05,39.05,0,0,0,6.53-8.23c.08-.09.16-.09.24,0a11,11,0,0,1-2.06,3.28A23.26,23.26,0,0,1,70.14,85Z"/><path class="cls-14" d="M18.57,76.88l.6.72a60,60,0,0,0,5.46,6.94.29.29,0,0,1,.07.41c-.25.14-.38,0-.48-.21a10.3,10.3,0,0,0-1.92-2.43A30.9,30.9,0,0,1,19,78,1.7,1.7,0,0,1,18.57,76.88Z"/><path class="cls-15" d="M7.26,50.15a37,37,0,0,1-.72,3.92,44.34,44.34,0,0,0-.37,7.36,1.6,1.6,0,0,1,.06.84.18.18,0,0,1-.28,0l0-1.29a4.89,4.89,0,0,1,0-2A29.16,29.16,0,0,1,7,50.14.14.14,0,0,1,7.26,50.15Z"/><path class="cls-16" d="M6.1,62.34c0-.3.05-.6.07-.91a1.16,1.16,0,0,1,.17.83A32.89,32.89,0,0,0,7.67,71a2,2,0,0,1,0,.43.19.19,0,0,1-.08.3A5.23,5.23,0,0,1,7,70c-.35-.54-.24-1.18-.42-1.75l0-.65A13.68,13.68,0,0,1,6.1,62.34Z"/><path class="cls-17" d="M21.15,92.78l-.42,0c-.17-.43.26-.46.44-.65a.4.4,0,0,0,.22-.42,22.78,22.78,0,0,1,1.72-1.54l.45-.43c.18-.2.22-.49.44-.66l.23-.43c.27-.38.32-1,.94-1,0,.27.14.56-.12.79C24,90.1,22.43,91.31,21.15,92.78Z"/><path class="cls-18" d="M8.83,101.69l-.32.06a4,4,0,0,1-2.83-4.24c0-.41,0-.81.47-1,0,1.33-.37,2.73.76,3.86A18.22,18.22,0,0,0,8.83,101.69Z"/><path class="cls-19" d="M81.49,59.91c-.08.11-.22.23-.22.34a16.78,16.78,0,0,1-.46,4.47.19.19,0,0,1-.26,0,.31.31,0,0,1,0-.28,25.29,25.29,0,0,0,.22-4C80.75,60,80.82,59.56,81.49,59.91Z"/><path class="cls-20" d="M76.89,76.47h-.24A56,56,0,0,0,78.91,71c.42.13.27.4.16.66A44.69,44.69,0,0,1,76.89,76.47Z"/><path class="cls-21" d="M36.62,28.8V29l-4.36,1.73A11.09,11.09,0,0,1,36.62,28.8Z"/><path class="cls-22" d="M15.27,52.72l-.19,0a12.93,12.93,0,0,1,1.27-4.6c.09-.11.17-.1.25,0Z"/><path class="cls-23" d="M80.55,64.47l.09.27c.29,1-.31,1.87-.46,2.81l-.48,1.94a.17.17,0,0,1-.24.05.27.27,0,0,1,0-.26A49.16,49.16,0,0,1,80.55,64.47Z"/><path class="cls-24" d="M59.91,91.05a.75.75,0,0,1,0,.21c-.77.82-1.86.83-2.85,1.08H57l-.08,0c-.35.18-.66.46-1.09.23,0-.08,0-.16,0-.24Z"/><path class="cls-25" d="M6.1,62.34a31.33,31.33,0,0,0,.46,5.21c-.79-1.67-.64-3.46-.61-5.23Z"/><path class="cls-26" d="M8.31,73.44c.34,1.26,1.14,2.36,1.32,3.69a8.78,8.78,0,0,1-1.52-3.71C8.18,73.33,8.25,73.33,8.31,73.44Z"/><path class="cls-27" d="M37.71,20.1a20.19,20.19,0,0,1-3.27.87c-.07,0-.09-.1-.06-.14s0-.07.07-.07a17.26,17.26,0,0,1,3.23-.92.61.61,0,0,0,.07.1s0,.09,0,.12A.09.09,0,0,1,37.71,20.1Z"/><path class="cls-28" d="M7.26,50.15H7a10.51,10.51,0,0,1,1-3.09.19.19,0,0,1,.06.31A11.44,11.44,0,0,1,7.26,50.15Z"/><path class="cls-29" d="M25.05,88.42v-.85c-.46-.82-.24-1.74-.39-2.61l0-.42c.64.23.65.76.69,1.32A4.41,4.41,0,0,1,25.05,88.42Z"/><path class="cls-30" d="M88,70.15c-.08.44-.15.87-.22,1.31-.21.66-.43,1.31-.64,2L87,73.5l-.11-.09,0-.63a10.09,10.09,0,0,1,.87-2.62h0C87.84,70.06,87.9,70.06,88,70.15Z"/><path class="cls-30" d="M16.6,48.18l-.25,0a16.4,16.4,0,0,1,1.33-2.81.5.5,0,0,1,0,.65Z"/><path class="cls-31" d="M55.17,101.33l-.53-.06c1.06-.09,2-.64,3.09-.65a.14.14,0,0,1,.06.14s0,.08-.06.08A7.91,7.91,0,0,1,55.17,101.33Z"/><path class="cls-32" d="M17.68,46v-.65A4.61,4.61,0,0,1,18.55,44c.07-.11.14-.1.21,0A6.71,6.71,0,0,1,17.68,46Z"/><path class="cls-33" d="M57.73,100.84v-.22a1.93,1.93,0,0,1,1.49-.43.63.63,0,0,1,.73,0Z"/><path class="cls-34" d="M79.53,69.53l.17,0c.17.84-.35,1.49-.63,2.2,0-.23.05-.48-.16-.66a.38.38,0,0,1,.15-.45C79.32,70.28,79.2,69.8,79.53,69.53Z"/><path class="cls-35" d="M63.41,98.69c0,.07,0,.13,0,.2l-1.3.43c-.37.09-.68.48-1.11.21.25-.61,1-.23,1.33-.64C62.66,98.73,63,98.32,63.41,98.69Z"/><path class="cls-36" d="M8.31,73.44l-.2,0c-.12-.57-.52-1.06-.48-1.68,0-.1,0-.2.08-.3A3.81,3.81,0,0,1,8.31,73.44Z"/><path class="cls-37" d="M8.13,47.36l-.06-.31c-.1-.64.5-1.08.49-1.69a.2.2,0,0,1,.26,0,.81.81,0,0,1,.11.27.48.48,0,0,1-.17.39Z"/><path class="cls-38" d="M18.76,44h-.21a3.81,3.81,0,0,1,1.08-1.75A3.86,3.86,0,0,1,18.76,44Z"/><path class="cls-37" d="M34.45,20.76a1.48,1.48,0,0,1,0,.21l-1.08.44a.67.67,0,0,1-.45.2.6.6,0,0,1-.44-.21C33.13,21.17,33.69,20.64,34.45,20.76Z"/><path class="cls-25" d="M5.91,59.05v2A2.19,2.19,0,0,1,5.91,59.05Z"/><path class="cls-39" d="M60,100.22l-.73,0a2.78,2.78,0,0,1,1.3-.45.19.19,0,0,1,.31.06A1.89,1.89,0,0,1,60,100.22Z"/><path class="cls-25" d="M6.59,68.2A5.22,5.22,0,0,1,7,70C6.46,69.46,6.57,68.82,6.59,68.2Z"/><path class="cls-40" d="M60.83,99.8l-.31-.06.46-.21,1.11-.21A1.54,1.54,0,0,1,60.83,99.8Z"/><path class="cls-41" d="M79.53,69.53c-.07.39-.07.81-.47,1a1.63,1.63,0,0,1,.41-1.3Z"/><path class="cls-30" d="M86.48,74.74a1.54,1.54,0,0,1,.4-1.33l.06,0c.2.42-.07.74-.23,1.08Z"/><path class="cls-42" d="M32.47,21.4l.47,0c-.18.67-.58.74-1.12.39,0-.07,0-.13,0-.2Z"/><path class="cls-37" d="M86.71,74.54c.08-.36.15-.72.23-1.08a.57.57,0,0,1,.18,0C87.15,73.86,87.15,74.28,86.71,74.54Z"/><path class="cls-35" d="M86.25,76l-.2,0c-.38-.45,0-.76.2-1.11l.18,0C86.59,75.34,86.3,75.66,86.25,76Z"/><path class="cls-9" d="M8.75,45.34l-.19,0A1.26,1.26,0,0,1,9,44.45l.06.06C9.24,44.89,9.16,45.17,8.75,45.34Z"/><path class="cls-17" d="M20.34,93.26c0,.52.42.39.72.39,8.94,0,17.88,0,26.82,0,1.61,0,3.22-.44,4.85-.38.07.05.09.09.07.14s0,.07-.08.07l-.87,0c-.57.53-1.34.12-2,.4h-.21a1.73,1.73,0,0,1-1.25.22q-13.44,0-26.87,0a1.9,1.9,0,0,1-1.26-.2l-.2,0C20,93.59,19.73,93.26,20.34,93.26Z"/><path class="cls-43" d="M20.3,93.9l29.38,0c.42.47,1,.05,1.74.44h-2a2.22,2.22,0,0,0-1.17-.1H21.47a2.32,2.32,0,0,1-1.17-.1Z"/><path class="cls-44" d="M20.3,94.11q14,0,27.93,0c.41,0,.87-.16,1.23.21q-14,0-27.93,0C21.12,94.32,20.65,94.48,20.3,94.11Z"/><path class="cls-45" d="M31.82,21.83a1,1,0,0,0,1.12-.39l.42,0c.12.27.46.13.68.35A15.31,15.31,0,0,0,30.26,23,19.53,19.53,0,0,0,26,25.32a8.17,8.17,0,0,1-2.22,1.09,33.93,33.93,0,0,1,6.87-4.06C31,22.16,31.43,22,31.82,21.83Z"/><path class="cls-45" d="M8.76,46l0-.41a3.18,3.18,0,0,0,.39-1.12,35.68,35.68,0,0,1,4.58-8.06,7.08,7.08,0,0,1-1.37,2.74,13.16,13.16,0,0,0-1.72,3.28,8.13,8.13,0,0,1-.61,1.36,12.73,12.73,0,0,0-1,2.85Z"/><path class="cls-17" d="M14.67,54.76c-.14,1.43-.3,2.85-.39,4.28a31.42,31.42,0,0,0,.39,5.89c0,.36,0,.73,0,1.09A12.12,12.12,0,0,1,14,63.56c-.09-3.05-.27-6.12.56-9.11A.2.2,0,0,1,14.67,54.76Z"/><path class="cls-43" d="M24.67,85c.65.79.38,1.72.39,2.61-.28.37-.32.91-.83,1.1-.73-.54.42-.59.26-1.07-.25-.79.21-1.71-.4-2.46-.05-.06.08-.26.13-.4Z"/><path class="cls-46" d="M13.71,56.94v6.9H13.6V56.93Z"/><path class="cls-47" d="M57,92.34l2.85-1.08h.67A4.11,4.11,0,0,1,57,92.34Z"/><path class="cls-48" d="M88,70.15h-.2c-.07-.23-.24-.5-.19-.7.16-.56.68-1,.47-1.68A7,7,0,0,1,88,66c.42.6-.12,1.32.42,1.79C88.58,68.63,88,69.34,88,70.15Z"/><path class="cls-49" d="M52.72,93.45a1.48,1.48,0,0,0,0-.21l3.05-.66,1.09-.23a.69.69,0,0,1-.65.46c-.33.24-.67.45-1.1.21A4.82,4.82,0,0,1,52.72,93.45Z"/><path class="cls-50" d="M86.25,75c0,.38-.31.71-.2,1.11A8.59,8.59,0,0,1,85,78.24,8.32,8.32,0,0,1,86.25,75Z"/><path class="cls-50" d="M63.41,98.69c-.4-.1-.73.18-1.1.2a8.26,8.26,0,0,1,3.28-1.29A8.4,8.4,0,0,1,63.41,98.69Z"/><path class="cls-43" d="M20.34,93.26c-.35.1-.25.38-.24.62-.65-.1-.88-.38-.27-.84.42-.33.65-1,1.34-.89-.14.22-.29.44-.44.65Z"/><path class="cls-48" d="M87.78,70.16a10.09,10.09,0,0,1-.87,2.62C86.94,71.82,86.86,70.83,87.78,70.16Z"/><path class="cls-43" d="M23.11,90.19a3.84,3.84,0,0,1-1.72,1.54A2.41,2.41,0,0,1,23.11,90.19Z"/><path class="cls-51" d="M80.18,67.55c-.05-1,.56-1.84.46-2.82h.17A4.83,4.83,0,0,1,80.18,67.55Z"/><path class="cls-48" d="M39.45,19.66c.17-.24.43-.2.67-.18.52.42,1.18,0,1.89.34A5.66,5.66,0,0,1,39.45,19.66Z"/><path class="cls-22" d="M14.67,54.76c0-.1-.05-.21-.07-.31A1.89,1.89,0,0,1,15.06,53,2.9,2.9,0,0,1,14.67,54.76Z"/><path class="cls-43" d="M49.89,93.88c.6-.37,1.34-.12,2-.4C51.32,94.23,50.55,93.76,49.89,93.88Z"/><path class="cls-48" d="M37.71,20.1a.47.47,0,0,1,0-.16l1-.05C38.57,20.66,38.11,20.22,37.71,20.1Z"/><path class="cls-52" d="M55.12,93l1.1-.21C56,93.47,55.56,93.32,55.12,93Z"/><path class="cls-43" d="M24,89.1a.67.67,0,0,1-.44.66C23.56,89.44,23.55,89.12,24,89.1Z"/><path class="cls-53" d="M65.35,54.53c1.08,2.91,2,5.5,3,8.2-1.89,0-3.62,0-5.35,0-.57,0-.58-.27-.43-.69C63.48,59.65,64.36,57.25,65.35,54.53Z"/><path class="cls-42" d="M9.18,44.47a1,1,0,0,1-.39,1.12c0-.08,0-.17,0-.25.08-.28.17-.55.26-.83A.53.53,0,0,1,9.18,44.47Z"/></g></g></svg>