<?xml version="1.0" standalone="no"?><!DOCTYPE svg PUBLIC "-//W3C//DTD SVG 1.1//EN" "http://www.w3.org/Graphics/SVG/1.1/DTD/svg11.dtd"><svg t="1665546259715" class="icon" viewBox="0 0 1024 1024" version="1.1" xmlns="http://www.w3.org/2000/svg" p-id="1664" xmlns:xlink="http://www.w3.org/1999/xlink" width="200" height="200"><path d="M855.466667 200.533333C765.866667 110.933333 640 59.733333 514.133333 64c-130.133333-2.133333-256 46.933333-345.6 136.533333-83.2 85.333333-128 196.266667-125.866666 311.466667 0 78.933333 21.333333 155.733333 57.6 221.866667l-29.866667 87.466666c-10.666667 32-4.266667 66.133333 19.2 91.733334 19.2 21.333333 42.666667 32 70.4 32 6.4 0 10.666667 0 17.066667-2.133334l132.266666-23.466666c61.866667 27.733333 130.133333 40.533333 200.533334 40.533333h10.666666c125.866667 0 245.333333-49.066667 332.8-136.533333 85.333333-85.333333 130.133333-196.266667 125.866667-311.466667 4.266667-117.333333-40.533333-226.133333-123.733333-311.466667zM512 746.666667c-132.266667 0-238.933333-104.533333-238.933333-234.666667 0-23.466667 19.2-42.666667 42.666666-42.666667s42.666667 19.2 42.666667 42.666667c0 83.2 68.266667 149.333333 153.6 149.333333s153.6-66.133333 153.6-149.333333c0-23.466667 19.2-42.666667 42.666667-42.666667s42.666667 19.2 42.666666 42.666667c0 130.133333-106.666667 234.666667-238.933333 234.666667z" fill="#1571FA" p-id="1665"></path></svg>